<svg width="12" height="7" viewBox="0 0 12 7" fill="none" xmlns="http://www.w3.org/2000/svg">
<path d="M11.2438 0.290792C11.0565 0.104542 10.803 0 10.5388 0C10.2747 0 10.0212 0.104542 9.83385 0.290792L6.24384 3.83079L2.70385 0.290792C2.51648 0.104542 2.26303 0 1.99885 0C1.73466 0 1.48121 0.104542 1.29385 0.290792C1.20012 0.383755 1.12572 0.494356 1.07495 0.616216C1.02418 0.738075 0.998047 0.868781 0.998047 1.00079C0.998047 1.1328 1.02418 1.26351 1.07495 1.38537C1.12572 1.50723 1.20012 1.61783 1.29385 1.71079L5.53384 5.95079C5.62681 6.04452 5.73741 6.11891 5.85927 6.16968C5.98113 6.22045 6.11183 6.24659 6.24384 6.24659C6.37586 6.24659 6.50656 6.22045 6.62842 6.16968C6.75028 6.11891 6.86088 6.04452 6.95385 5.95079L11.2438 1.71079C11.3376 1.61783 11.412 1.50723 11.4627 1.38537C11.5135 1.26351 11.5396 1.1328 11.5396 1.00079C11.5396 0.868781 11.5135 0.738075 11.4627 0.616216C11.412 0.494356 11.3376 0.383755 11.2438 0.290792Z" fill="#788CA1"/>
</svg>
