<svg width="8" height="7" viewBox="0 0 8 7" fill="none" xmlns="http://www.w3.org/2000/svg">
<path d="M3.0775 6.59374C2.99657 6.59425 2.91633 6.57744 2.8414 6.54428C2.76647 6.51111 2.69832 6.46225 2.64086 6.40049L0.180865 3.73504C0.0650591 3.60956 -1.22022e-09 3.43938 0 3.26193C1.22022e-09 3.08447 0.0650591 2.91429 0.180865 2.78881C0.296672 2.66333 0.453739 2.59284 0.617514 2.59284C0.781289 2.59284 0.938356 2.66333 1.05416 2.78881L3.0775 4.9878L6.94584 0.789721C7.06165 0.664243 7.21871 0.59375 7.38249 0.59375C7.54626 0.59375 7.70333 0.664243 7.81913 0.789721C7.93494 0.9152 8 1.08539 8 1.26284C8 1.44029 7.93494 1.61048 7.81913 1.73596L3.51415 6.40049C3.45669 6.46225 3.38853 6.51111 3.31361 6.54428C3.23868 6.57744 3.15844 6.59425 3.0775 6.59374Z" fill="white"/>
</svg>
