<svg width="9" height="6" viewBox="0 0 9 6" fill="none" xmlns="http://www.w3.org/2000/svg">
<path d="M3.46219 5.99999C3.37114 6.0005 3.28087 5.98369 3.19658 5.95053C3.11228 5.91736 3.03561 5.8685 2.97096 5.80674L0.203474 3.14129C0.0731914 3.01581 -1.37274e-09 2.84563 0 2.66818C1.37274e-09 2.49072 0.0731914 2.32054 0.203474 2.19506C0.333756 2.06958 0.510456 1.99909 0.694703 1.99909C0.87895 1.99909 1.05565 2.06958 1.18593 2.19506L3.46219 4.39405L7.81407 0.195971C7.94435 0.0704928 8.12105 0 8.3053 0C8.48954 0 8.66624 0.0704928 8.79653 0.195971C8.92681 0.32145 9 0.491635 9 0.669089C9 0.846542 8.92681 1.01673 8.79653 1.14221L3.95342 5.80674C3.88877 5.8685 3.8121 5.91736 3.72781 5.95053C3.64351 5.98369 3.55325 6.0005 3.46219 5.99999Z" fill="#33A1FB"/>
</svg>
