<svg width="16" height="16" viewBox="0 0 16 16" fill="none" xmlns="http://www.w3.org/2000/svg">
<path d="M12 10.799V11.999C12 12.479 11.68 12.799 11.2 12.799C10.72 12.799 10.4 12.479 10.4 11.999V10.799H5.6V11.999C5.6 12.479 5.28 12.799 4.8 12.799C4.32 12.799 4 12.479 4 11.999V10.799H2.4C1.84 10.799 1.28 10.639 0.8 10.399V13.599C0.8 14.959 1.84 15.999 3.2 15.999H12.8C14.16 15.999 15.2 14.959 15.2 13.599V10.399C14.72 10.639 14.16 10.799 13.6 10.799H12ZM15.2 3.19902H12V2.39902C12 1.03902 10.96 -0.000976562 9.6 -0.000976562H6.4C5.04 -0.000976562 4 1.03902 4 2.39902V3.19902H0.8C0.32 3.19902 0 3.51902 0 3.99902V7.19902C0 8.55902 1.04 9.59902 2.4 9.59902H13.6C14.96 9.59902 16 8.55902 16 7.19902V3.99902C16 3.51902 15.68 3.19902 15.2 3.19902ZM10.4 3.19902H5.6V2.39902C5.6 1.91902 5.92 1.59902 6.4 1.59902H9.6C10.08 1.59902 10.4 1.91902 10.4 2.39902V3.19902Z" fill="#99A3C5"/>
</svg>
