<svg width="16" height="16" viewBox="0 0 16 16" fill="none" xmlns="http://www.w3.org/2000/svg">
<path d="M13.6 1.59902H12.8V0.799023C12.8 0.319023 12.48 -0.000976562 12 -0.000976562C11.52 -0.000976562 11.2 0.319023 11.2 0.799023V1.59902H4.8V0.799023C4.8 0.319023 4.48 -0.000976562 4 -0.000976562C3.52 -0.000976562 3.2 0.319023 3.2 0.799023V1.59902H2.4C1.04 1.59902 0 2.63902 0 3.99902V4.79902H16V3.99902C16 2.63902 14.96 1.59902 13.6 1.59902ZM0 13.599C0 14.959 1.04 15.999 2.4 15.999H13.6C14.96 15.999 16 14.959 16 13.599V6.39902H0V13.599ZM12 7.99902C12.48 7.99902 12.8 8.31902 12.8 8.79902C12.8 9.27902 12.48 9.59902 12 9.59902C11.52 9.59902 11.2 9.27902 11.2 8.79902C11.2 8.31902 11.52 7.99902 12 7.99902ZM12 11.199C12.48 11.199 12.8 11.519 12.8 11.999C12.8 12.479 12.48 12.799 12 12.799C11.52 12.799 11.2 12.479 11.2 11.999C11.2 11.519 11.52 11.199 12 11.199ZM8 7.99902C8.48 7.99902 8.8 8.31902 8.8 8.79902C8.8 9.27902 8.48 9.59902 8 9.59902C7.52 9.59902 7.2 9.27902 7.2 8.79902C7.2 8.31902 7.52 7.99902 8 7.99902ZM8 11.199C8.48 11.199 8.8 11.519 8.8 11.999C8.8 12.479 8.48 12.799 8 12.799C7.52 12.799 7.2 12.479 7.2 11.999C7.2 11.519 7.52 11.199 8 11.199ZM4 7.99902C4.48 7.99902 4.8 8.31902 4.8 8.79902C4.8 9.27902 4.48 9.59902 4 9.59902C3.52 9.59902 3.2 9.27902 3.2 8.79902C3.2 8.31902 3.52 7.99902 4 7.99902ZM4 11.199C4.48 11.199 4.8 11.519 4.8 11.999C4.8 12.479 4.48 12.799 4 12.799C3.52 12.799 3.2 12.479 3.2 11.999C3.2 11.519 3.52 11.199 4 11.199Z" fill="#99A3C5"/>
</svg>
