<svg width="13" height="16" viewBox="0 0 13 16" fill="none" xmlns="http://www.w3.org/2000/svg">
<path d="M11.375 8.95588V6.39678C11.375 4.07759 9.66875 2.07829 7.3125 1.67843V0.798743C7.3125 0.318911 6.9875 -0.000976562 6.5 -0.000976562C6.0125 -0.000976562 5.6875 0.318911 5.6875 0.798743V1.67843C3.33125 2.07829 1.625 4.07759 1.625 6.39678V8.95588C0.65 9.27577 0 10.1555 0 11.1951V12.7945C0 13.2744 0.325 13.5943 0.8125 13.5943H3.33125C3.7375 15.2737 5.525 16.3133 7.23125 15.9134C8.36875 15.5936 9.2625 14.7139 9.5875 13.5943H12.1875C12.675 13.5943 13 13.2744 13 12.7945V11.1951C13 10.1555 12.35 9.27577 11.375 8.95588ZM6.5 14.394C5.93125 14.394 5.3625 14.0741 5.11875 13.5943H7.9625C7.6375 14.0741 7.06875 14.394 6.5 14.394Z" fill="#99A3C5"/>
</svg>
