<svg width="20" height="16" viewBox="0 0 20 16" fill="none" xmlns="http://www.w3.org/2000/svg">
<path d="M6.79826 7.52844C8.8152 7.52844 10.4654 5.83432 10.4654 3.76373C10.4654 1.69314 8.8152 -0.000976562 6.79826 -0.000976562C4.78133 -0.000976562 3.13112 1.69314 3.13112 3.76373C3.13112 5.83432 4.78133 7.52844 6.79826 7.52844ZM10.9238 6.68138C12.4823 7.99902 14.7743 7.71667 16.0578 6.11667C17.3413 4.51667 17.0663 2.16373 15.5077 0.846082C14.866 0.281376 14.0409 -0.000976562 13.2158 -0.000976562C12.3907 -0.000976562 11.5656 0.281376 10.9238 0.846082C12.4823 2.16373 12.7574 4.42255 11.4739 6.11667C11.3822 6.30491 11.1072 6.49314 10.9238 6.68138ZM20 14.9637C19.4499 11.4814 16.6079 8.9402 13.2158 8.9402C12.3907 8.9402 11.6572 9.03432 10.9238 9.31667C13.3075 10.1637 15.0493 12.3284 15.4161 14.8696C15.5077 15.3402 15.141 15.9049 14.591 15.9049H14.4993H19.0832C19.6333 15.9049 20 15.5284 20 14.9637C20 15.0578 20 14.9637 20 14.9637ZM6.79826 8.9402C3.40615 8.9402 0.472434 11.4814 0.01404 14.9637C-0.0776387 15.4343 0.289076 15.999 0.839149 15.999H0.930827H12.6657C13.2158 15.999 13.5825 15.6226 13.5825 15.0578V14.9637C13.1241 11.4814 10.1904 8.9402 6.79826 8.9402Z" fill="#99A3C5"/>
</svg>
