<svg width="15" height="16" viewBox="0 0 15 16" fill="none" xmlns="http://www.w3.org/2000/svg">
<path d="M13.3333 1.59902H12.5V-0.000976562H10.8333V1.59902H4.16667V-0.000976562H2.5V1.59902H1.66667C0.745833 1.59902 0 2.31502 0 3.19902V14.399C0 15.283 0.745833 15.999 1.66667 15.999H13.3333C14.2542 15.999 15 15.283 15 14.399V3.19902C15 2.31502 14.2542 1.59902 13.3333 1.59902ZM7.5 3.99902C8.87917 3.99902 10 5.07502 10 6.39902C10 7.72702 8.87917 8.79902 7.5 8.79902C6.12083 8.79902 5 7.72702 5 6.39902C5 5.07502 6.12083 3.99902 7.5 3.99902ZM12.5 13.599H2.5V12.799C2.5 11.199 5.83333 10.319 7.5 10.319C9.16667 10.319 12.5 11.199 12.5 12.799V13.599Z" fill="#99A3C5"/>
</svg>
