<svg width="23" height="23" viewBox="0 0 23 23" fill="none" xmlns="http://www.w3.org/2000/svg">
<path d="M0.9 11.5001C0.9 17.3545 5.64565 22.1002 11.5001 22.1002C17.3545 22.1002 22.1002 17.3545 22.1002 11.5001C22.1002 5.64564 17.3545 0.9 11.5001 0.9C5.64565 0.9 0.9 5.64564 0.9 11.5001ZM2.24227 11.5001C2.24227 6.4151 6.4151 2.24226 11.5001 2.24226C16.5854 2.24226 20.7579 6.37147 20.7579 11.5001C20.7579 16.5851 16.5851 20.7579 11.5001 20.7579C6.4151 20.7579 2.24227 16.5851 2.24227 11.5001Z" fill="#33A1FB" stroke="#33A1FB" stroke-width="0.2"/>
<path d="M8.28086 16.9043V17.0779L8.43104 16.9908L17.7449 11.587L17.8934 11.5008L17.7452 11.4142L8.43135 5.96642L8.28086 5.87839V6.05273V16.9043ZM9.711 8.38066L14.9929 11.4999L9.711 14.5775V8.38066Z" fill="#33A1FB" stroke="#33A1FB" stroke-width="0.2"/>
</svg>
